# xmcd
#
# Track frame offsets:
#	150
#	20470
#	37935
#	54550
#	71052
#	87977
#	99120
#	110580
#	126022
#	139487
#	153125
#	168790
#	182365
#	198522
#	211807
#	226687
#	251502
#	267630
#
# Disc length: 3795 seconds
#
# Revision: 2
# Processed by: cddbd v1.5.2PL0 Copyright (c) Steve Scherf et al.
# Submitted via: audiograbber 1.83.01
#
DISCID=eb0ed112
DTITLE=Various Artist - Timeless Favourites - Andrew Lloyd Webber (Reader's Di
DTITLE=gest) [Disc 2]
DYEAR=1995
DGENRE=Easy Listening
TTITLE0=Mary Carewe - Memory (Cats)
TTITLE1=Sofia Lane - All I Ask Of You (The Phantom Of The Opera)
TTITLE2=National Philharmonic Orchestra, Charles Gerhardt - Love Changes Everyt
TTITLE2=hing (Aspects Of Love)
TTITLE3=Lena Lucraft - With One Look (Sunset Boulevard)
TTITLE4=Carl Wayne - Tell Me On A Sunday (Song And Dance)
TTITLE5=Julie Bryant - Chanson D'Enface (Aspects Of Love)
TTITLE6=Stephanie Lawrence - There Is More To Love (Aspects Of Love)
TTITLE7=Paul Jones - Unexpected Song (Song And Dance)
TTITLE8=Stephanie Lawrence - Anything But Lonely (Aspects Of Love)
TTITLE9=Tracy Whitman - Another Suitcase In Another Hall (Evita)
TTITLE10=Carl Wayne - Half A Moment (Jeeves)
TTITLE11=Kirsten Bohanson - Wishing You Were Somehow Here Again (The Phantom Of
TTITLE11=The Opera)
TTITLE12=Shirley Banks - The Last Man In My Life (Song And Dance)
TTITLE13=Carl Wayne - On This Night Of A Thousand Stars (Evita)
TTITLE14=Kirsten Bohanson and Don Wayne - I'd Be Surprisingly Good For You (Evita
TTITLE14=)
TTITLE15=Mike Pearn - The Music Of The Night (The Phantom Of The Opera)
TTITLE16=Stephanie Lawrence - Think Of Me (The Phantom Of The Opera)
TTITLE17=Sofia Lane - Come Back With The Same Look In Your Eyes
EXTD=
EXTT0=
EXTT1=
EXTT2=
EXTT3=
EXTT4=
EXTT5=
EXTT6=
EXTT7=
EXTT8=
EXTT9=
EXTT10=
EXTT11=
EXTT12=
EXTT13=
EXTT14=
EXTT15=
EXTT16=
EXTT17=
PLAYORDER=
